<svg width="66" height="85" viewBox="0 0 66 85" fill="none" xmlns="http://www.w3.org/2000/svg">
<path d="M47.6472 85C41.7882 85 35.9433 82.7588 31.4985 78.3188L13.3483 60.1686L0 73.5216V30.9488H12.404V37.179H6.23017V58.4865L13.353 51.3637L35.9057 73.9163C41.3324 79.343 49.6346 80.2498 56.0245 76.5146L22.1157 42.6057L32.1422 32.5792C33.7303 30.9911 34.1626 28.8063 33.3027 26.7343C32.4429 24.6623 30.5917 23.4266 28.3506 23.4266H20.3115C9.11033 23.4266 0 14.3162 0 3.11509V0H30.9018C42.5117 0 52.4866 6.66243 56.9313 17.389C61.3761 28.1156 59.0363 39.8806 50.8233 48.0935L49.0285 49.8883L44.6214 45.4859L46.4162 43.6911C52.8108 37.2964 54.6338 28.1297 51.1757 19.7759C47.7129 11.422 39.9464 6.23017 30.9018 6.23017H6.57785C7.99679 12.4885 13.6162 17.187 20.3115 17.187H28.3506C33.1289 17.187 37.2307 19.9309 39.0584 24.3428C40.8861 28.7546 39.9229 33.594 36.5447 36.9722L30.9206 42.5963L65.3181 76.9938L62.8655 79.188C58.5241 83.0736 53.0786 85 47.6472 85Z" fill="white"/>
<path d="M44.626 45.4765L39.2087 50.8891L43.6159 55.2916L49.0285 49.8789L44.626 45.4765Z" fill="url(#paint0_linear_105_4)"/>
<path d="M27.5518 37.1602L32.1422 32.5698C32.6309 32.0811 32.9973 31.5267 33.2652 30.9441H12.404V37.1743L27.5518 37.1602Z" fill="url(#paint1_linear_105_4)"/>
<defs>
<linearGradient id="paint0_linear_105_4" x1="41.5825" y1="52.9209" x2="46.3477" y2="48.1557" gradientUnits="userSpaceOnUse">
<stop stop-color="white" stop-opacity="0.36"/>
<stop offset="0.8005" stop-color="white"/>
</linearGradient>
<linearGradient id="paint1_linear_105_4" x1="28.0109" y1="34.0607" x2="13.116" y2="34.0607" gradientUnits="userSpaceOnUse">
<stop offset="2.6e-07" stop-color="white" stop-opacity="0.6"/>
<stop offset="1" stop-color="white"/>
</linearGradient>
</defs>
</svg>
